<svg width="38" height="46" viewBox="0 0 38 46" fill="none" xmlns="http://www.w3.org/2000/svg">
<path d="M10.52 2.74392C10.52 2.74392 12.989 1.75 18.7499 1.75C24.5108 1.75 26.9798 2.74392 26.9798 2.74392M14.5074 12.8253C15.9199 12.7235 17.3348 12.6761 18.7499 12.6832C20.5103 12.6832 21.8986 12.7388 22.9924 12.8253M8.87402 31.5677C8.87402 34.7309 9.91451 37.7646 11.7666 40.0014C13.6187 42.2382 16.1306 43.4948 18.7499 43.4948C21.3691 43.4948 23.8811 42.2382 25.7332 40.0014C27.5853 37.7646 28.6258 34.7309 28.6258 31.5677C28.6258 28.4044 27.5853 25.3707 25.7332 23.134C23.8811 20.8972 21.3691 19.6406 18.7499 19.6406C16.1306 19.6406 13.6187 20.8972 11.7666 23.134C9.91451 25.3707 8.87402 28.4044 8.87402 31.5677Z" stroke="#CC7E00" stroke-width="3.5" stroke-linecap="round" stroke-linejoin="round"/>
<path d="M17.6505 19.7142C13.2672 10.6526 10.5209 2.74396 10.5209 2.74396C10.5209 2.74396 4.63656 7.30408 1.94539 14.2834C1.61619 15.1382 1.71413 16.1241 2.15525 16.9014C3.34529 18.9966 5.98297 23.4613 9.31608 28.0274M28.1831 28.0274C31.5162 23.4623 34.1547 18.9966 35.3448 16.9014C35.7859 16.1241 35.8838 15.1382 35.5546 14.2834C32.8651 7.30408 26.9799 2.74396 26.9799 2.74396C26.9799 2.74396 24.2344 10.6526 19.8512 19.7142M17.8373 25.2464C17.924 25.0441 18.0551 24.8746 18.2162 24.7562C18.3773 24.6379 18.5623 24.5753 18.7508 24.5753C18.9394 24.5753 19.1243 24.6379 19.2854 24.7562C19.4466 24.8746 19.5776 25.0441 19.6643 25.2464L20.9071 28.1407L23.5571 28.7708C23.7354 28.8133 23.9013 28.9121 24.0378 29.0571C24.1743 29.2022 24.2765 29.3883 24.334 29.5966C24.3916 29.8048 24.4024 30.0278 24.3654 30.2428C24.3284 30.4577 24.2448 30.657 24.1233 30.8203L22.2403 33.3498L22.5851 36.7242C22.608 36.9472 22.5804 37.1735 22.5052 37.3791C22.43 37.5846 22.31 37.7617 22.1581 37.8914C22.0062 38.0211 21.828 38.0987 21.6424 38.1158C21.4569 38.1329 21.271 38.0889 21.1046 37.9885L18.7508 36.5691L16.3971 37.9885C16.2306 38.0891 16.0446 38.1333 15.8589 38.1164C15.6733 38.0994 15.4949 38.0219 15.3429 37.8921C15.1908 37.7624 15.0708 37.5852 14.9956 37.3795C14.9203 37.1738 14.8927 36.9473 14.9157 36.7242L15.2613 33.3498L13.3783 30.8203C13.2568 30.657 13.1733 30.4577 13.1363 30.2428C13.0993 30.0278 13.1101 29.8048 13.1676 29.5966C13.2252 29.3883 13.3274 29.2022 13.4638 29.0571C13.6003 28.9121 13.7662 28.8133 13.9446 28.7708L16.5946 28.1407L17.8373 25.2464Z" stroke="#CC7E00" stroke-width="3.5" stroke-linecap="round" stroke-linejoin="round"/>
</svg>
