<svg width="35" height="42" viewBox="0 0 35 42" fill="none" xmlns="http://www.w3.org/2000/svg">
<path fill-rule="evenodd" clip-rule="evenodd" d="M7 4.17445H28C29.8565 4.17445 31.637 5.05407 32.9497 6.61981C34.2625 8.18554 35 10.3091 35 12.5234V33.3958C35 35.6101 34.2625 37.7337 32.9497 39.2994C31.637 40.8651 29.8565 41.7447 28 41.7447H7C5.14348 41.7447 3.36301 40.8651 2.05025 39.2994C0.737498 37.7337 0 35.6101 0 33.3958V12.5234C0 10.3091 0.737498 8.18554 2.05025 6.61981C3.36301 5.05407 5.14348 4.17445 7 4.17445ZM7 8.34893C6.07174 8.34893 5.1815 8.78874 4.52513 9.57161C3.86875 10.3545 3.5 11.4163 3.5 12.5234V33.3958C3.5 34.5029 3.86875 35.5647 4.52513 36.3476C5.1815 37.1305 6.07174 37.5703 7 37.5703H28C28.9283 37.5703 29.8185 37.1305 30.4749 36.3476C31.1313 35.5647 31.5 34.5029 31.5 33.3958V12.5234C31.5 11.4163 31.1313 10.3545 30.4749 9.57161C29.8185 8.78874 28.9283 8.34893 28 8.34893H7Z" fill="#CC7E00"/>
<path fill-rule="evenodd" clip-rule="evenodd" d="M1.75146 16.6979C1.75146 16.1443 1.93584 15.6134 2.26403 15.222C2.59222 14.8306 3.03734 14.6107 3.50146 14.6107H31.5015C31.9656 14.6107 32.4107 14.8306 32.7389 15.222C33.0671 15.6134 33.2515 16.1443 33.2515 16.6979C33.2515 17.2515 33.0671 17.7824 32.7389 18.1738C32.4107 18.5652 31.9656 18.7851 31.5015 18.7851H3.50146C3.03734 18.7851 2.59222 18.5652 2.26403 18.1738C1.93584 17.7824 1.75146 17.2515 1.75146 16.6979ZM10.5015 0C10.9656 0 11.4107 0.219905 11.7389 0.611338C12.0671 1.00277 12.2515 1.53367 12.2515 2.08724V10.4362C12.2515 10.9898 12.0671 11.5207 11.7389 11.9121C11.4107 12.3035 10.9656 12.5234 10.5015 12.5234C10.0373 12.5234 9.59222 12.3035 9.26403 11.9121C8.93584 11.5207 8.75146 10.9898 8.75146 10.4362V2.08724C8.75146 1.53367 8.93584 1.00277 9.26403 0.611338C9.59222 0.219905 10.0373 0 10.5015 0ZM24.5015 0C24.9656 0 25.4107 0.219905 25.7389 0.611338C26.0671 1.00277 26.2515 1.53367 26.2515 2.08724V10.4362C26.2515 10.9898 26.0671 11.5207 25.7389 11.9121C25.4107 12.3035 24.9656 12.5234 24.5015 12.5234C24.0373 12.5234 23.5922 12.3035 23.264 11.9121C22.9358 11.5207 22.7515 10.9898 22.7515 10.4362V2.08724C22.7515 1.53367 22.9358 1.00277 23.264 0.611338C23.5922 0.219905 24.0373 0 24.5015 0Z" fill="#CC7E00"/>
<path d="M10.499 22.9596C10.499 23.5132 10.3146 24.0441 9.98646 24.4355C9.65827 24.8269 9.21315 25.0469 8.74902 25.0469C8.28489 25.0469 7.83978 24.8269 7.51159 24.4355C7.1834 24.0441 6.99902 23.5132 6.99902 22.9596C6.99902 22.406 7.1834 21.8751 7.51159 21.4837C7.83978 21.0923 8.28489 20.8724 8.74902 20.8724C9.21315 20.8724 9.65827 21.0923 9.98646 21.4837C10.3146 21.8751 10.499 22.406 10.499 22.9596ZM10.499 31.3086C10.499 31.8621 10.3146 32.393 9.98646 32.7845C9.65827 33.1759 9.21315 33.3958 8.74902 33.3958C8.28489 33.3958 7.83978 33.1759 7.51159 32.7845C7.1834 32.393 6.99902 31.8621 6.99902 31.3086C6.99902 30.755 7.1834 30.2241 7.51159 29.8327C7.83978 29.4412 8.28489 29.2213 8.74902 29.2213C9.21315 29.2213 9.65827 29.4412 9.98646 29.8327C10.3146 30.2241 10.499 30.755 10.499 31.3086ZM19.249 22.9596C19.249 23.5132 19.0646 24.0441 18.7365 24.4355C18.4083 24.8269 17.9632 25.0469 17.499 25.0469C17.0349 25.0469 16.5898 24.8269 16.2616 24.4355C15.9334 24.0441 15.749 23.5132 15.749 22.9596C15.749 22.406 15.9334 21.8751 16.2616 21.4837C16.5898 21.0923 17.0349 20.8724 17.499 20.8724C17.9632 20.8724 18.4083 21.0923 18.7365 21.4837C19.0646 21.8751 19.249 22.406 19.249 22.9596ZM19.249 31.3086C19.249 31.8621 19.0646 32.393 18.7365 32.7845C18.4083 33.1759 17.9632 33.3958 17.499 33.3958C17.0349 33.3958 16.5898 33.1759 16.2616 32.7845C15.9334 32.393 15.749 31.8621 15.749 31.3086C15.749 30.755 15.9334 30.2241 16.2616 29.8327C16.5898 29.4412 17.0349 29.2213 17.499 29.2213C17.9632 29.2213 18.4083 29.4412 18.7365 29.8327C19.0646 30.2241 19.249 30.755 19.249 31.3086ZM27.999 22.9596C27.999 23.5132 27.8146 24.0441 27.4865 24.4355C27.1583 24.8269 26.7132 25.0469 26.249 25.0469C25.7849 25.0469 25.3398 24.8269 25.0116 24.4355C24.6834 24.0441 24.499 23.5132 24.499 22.9596C24.499 22.406 24.6834 21.8751 25.0116 21.4837C25.3398 21.0923 25.7849 20.8724 26.249 20.8724C26.7132 20.8724 27.1583 21.0923 27.4865 21.4837C27.8146 21.8751 27.999 22.406 27.999 22.9596ZM27.999 31.3086C27.999 31.8621 27.8146 32.393 27.4865 32.7845C27.1583 33.1759 26.7132 33.3958 26.249 33.3958C25.7849 33.3958 25.3398 33.1759 25.0116 32.7845C24.6834 32.393 24.499 31.8621 24.499 31.3086C24.499 30.755 24.6834 30.2241 25.0116 29.8327C25.3398 29.4412 25.7849 29.2213 26.249 29.2213C26.7132 29.2213 27.1583 29.4412 27.4865 29.8327C27.8146 30.2241 27.999 30.755 27.999 31.3086Z" fill="#CC7E00"/>
</svg>
