<svg width="52" height="52" viewBox="0 0 52 52" fill="none" xmlns="http://www.w3.org/2000/svg">
<g filter="url(#filter0_d_203_34)">
<path d="M9.04444 12.3489C13.6289 13.5222 14.3689 18.5844 16.16 20.9489C18.5378 24.0889 20.7711 23.6778 23.2533 26.8244C27.2644 31.9111 26.1689 39.5022 26.1689 41.7244M43.7778 28.6667H41.5556C39.1981 28.6667 36.9372 29.6032 35.2702 31.2702C33.6032 32.9372 32.6667 35.1981 32.6667 37.5556V39.7778M18.4156 4.20444C18.4156 6.03111 18.6644 8.39556 21.7822 9.93778C24.8978 11.4778 28.2667 10.7178 28.2667 15.1244C28.2667 15.7378 28.2667 19.5867 32.6489 19.5867C37.1511 19.6556 37.1511 15.8578 37.1511 15.1244C37.1511 13.68 38.3222 13.1244 39.7667 13.1244H43.7778M46 22C46 24.6264 45.4827 27.2272 44.4776 29.6537C43.4725 32.0802 41.9993 34.285 40.1421 36.1421C38.285 37.9993 36.0802 39.4725 33.6537 40.4776C31.2272 41.4827 28.6264 42 26 42C23.3736 42 20.7728 41.4827 18.3463 40.4776C15.9198 39.4725 13.715 37.9993 11.8579 36.1421C10.0007 34.285 8.5275 32.0802 7.52241 29.6537C6.51732 27.2272 6 24.6264 6 22C6 16.6957 8.10714 11.6086 11.8579 7.85786C15.6086 4.10714 20.6957 2 26 2C31.3043 2 36.3914 4.10714 40.1421 7.85786C43.8929 11.6086 46 16.6957 46 22Z" stroke="#CC7E00" stroke-width="4" stroke-linecap="round" shape-rendering="crispEdges"/>
</g>
<defs>
<filter id="filter0_d_203_34" x="0" y="0" width="52" height="52" filterUnits="userSpaceOnUse" color-interpolation-filters="sRGB">
<feFlood flood-opacity="0" result="BackgroundImageFix"/>
<feColorMatrix in="SourceAlpha" type="matrix" values="0 0 0 0 0 0 0 0 0 0 0 0 0 0 0 0 0 0 127 0" result="hardAlpha"/>
<feOffset dy="4"/>
<feGaussianBlur stdDeviation="2"/>
<feComposite in2="hardAlpha" operator="out"/>
<feColorMatrix type="matrix" values="0 0 0 0 0 0 0 0 0 0 0 0 0 0 0 0 0 0 0.25 0"/>
<feBlend mode="normal" in2="BackgroundImageFix" result="effect1_dropShadow_203_34"/>
<feBlend mode="normal" in="SourceGraphic" in2="effect1_dropShadow_203_34" result="shape"/>
</filter>
</defs>
</svg>
