<svg width="56" height="38" viewBox="0 0 56 38" fill="none" xmlns="http://www.w3.org/2000/svg">
<path d="M19.803 25.4613C20.713 25.4613 21.4503 26.194 21.4503 27.0947C21.4494 27.3101 21.4061 27.5232 21.3228 27.7219C21.2395 27.9205 21.1179 28.1008 20.9649 28.2525C20.812 28.4042 20.6306 28.5242 20.4313 28.6058C20.2319 28.6874 20.0184 28.7289 19.803 28.728H13.1413C12.9257 28.7292 12.712 28.6879 12.5124 28.6065C12.3127 28.525 12.1311 28.405 11.9779 28.2533C11.8247 28.1016 11.7029 27.9212 11.6194 27.7224C11.536 27.5236 11.4926 27.3103 11.4917 27.0947C11.4917 26.194 12.2313 25.4613 13.1413 25.4613H19.803ZM21.413 19.411C22.323 19.411 23.0603 20.146 23.0603 21.0443C23.0594 21.2599 23.016 21.4733 22.9326 21.6721C22.8491 21.8709 22.7273 22.0513 22.5741 22.203C22.4209 22.3547 22.2393 22.4747 22.0396 22.5562C21.84 22.6376 21.6263 22.6789 21.4107 22.6777H13.1787C12.9633 22.6786 12.7498 22.6371 12.5504 22.5555C12.351 22.4739 12.1697 22.3538 12.0167 22.2022C11.8638 22.0505 11.7422 21.8702 11.6589 21.6715C11.5756 21.4729 11.5323 21.2597 11.5313 21.0443C11.5313 20.1437 12.2687 19.411 13.1787 19.411H21.413ZM30.429 11.3377C30.4358 10.0331 30.9601 8.78462 31.8867 7.86633C32.8133 6.94803 34.0665 6.43504 35.371 6.44C36.6759 6.43504 37.9295 6.94835 38.8562 7.86715C39.7828 8.78595 40.3068 10.0351 40.313 11.34C40.3056 12.6452 39.7814 13.8943 38.8552 14.814C37.929 15.7336 36.6762 16.2489 35.371 16.247C34.0656 16.2483 32.8128 15.7325 31.8866 14.8124C30.9605 13.8924 30.4364 12.6431 30.429 11.3377ZM45.0333 26.642C45.2667 28.0863 44.1513 29.3953 42.6883 29.3907H28.0537C27.71 29.3913 27.3703 29.3173 27.058 29.1736C26.7458 29.0299 26.4686 28.8201 26.2455 28.5586C26.0224 28.2972 25.8589 27.9903 25.7662 27.6594C25.6735 27.3284 25.6539 26.9813 25.7087 26.642C26.4437 22.1107 28.9543 18.4543 32.2327 17.0053C33.1927 17.5386 34.2728 17.8184 35.371 17.8184C36.4692 17.8184 37.5493 17.5386 38.5093 17.0053C41.7877 18.4543 44.3007 22.1153 45.0333 26.642ZM24.7053 16.632C5.152 16.632 24.3623 16.6273 13.1763 16.6273C12.9607 16.6286 12.747 16.5873 12.5474 16.5058C12.3477 16.4244 12.1661 16.3044 12.0129 16.1527C11.8597 16.001 11.7379 15.8206 11.6544 15.6217C11.571 15.4229 11.5276 15.2096 11.5267 14.994C11.5267 14.0933 12.2663 13.3607 13.1763 13.3607L24.7053 13.363C25.6153 13.363 26.355 14.0957 26.3527 14.9987C26.3527 15.2143 26.31 15.4279 26.227 15.627C26.1441 15.826 26.0225 16.0067 25.8693 16.1586C25.7162 16.3104 25.5345 16.4305 25.3347 16.5117C25.1349 16.593 24.921 16.6338 24.7053 16.632ZM13.1787 10.5793C12.9628 10.5815 12.7487 10.5408 12.5486 10.4597C12.3485 10.3786 12.1666 10.2586 12.0132 10.1068C11.8597 9.95487 11.738 9.77408 11.6549 9.57485C11.5718 9.37561 11.529 9.16187 11.529 8.946C11.529 8.04533 12.2687 7.31267 13.1787 7.31267H24.7053C25.613 7.31267 26.3503 8.043 26.3503 8.946C26.3479 9.38064 26.173 9.79653 25.8641 10.1023C25.5553 10.4081 25.1376 10.5789 24.703 10.577L13.1787 10.5793ZM31.3997 34.1857C31.8057 34.1857 32.1953 34.0254 32.4837 33.7396C32.7721 33.4538 32.936 33.0657 32.9397 32.6597H49.413V3.25967H6.58933V32.6573H23.0603C23.0603 33.4997 23.7487 34.1833 24.6003 34.1833L31.3997 34.1857ZM56 32.6597V34.8927C56 36.3043 54.8427 37.45 53.4193 37.45H2.58067C1.15733 37.45 0 36.3067 0 34.8927V32.6597H3.297V3.22467C3.297 1.44433 4.75067 0 6.54967 0H49.4527C51.2493 0 52.7053 1.44433 52.7053 3.22467V32.6597H56Z" fill="#595757"/>
</svg>
