<svg width="54" height="36" viewBox="0 0 54 36" fill="none" xmlns="http://www.w3.org/2000/svg">
<path d="M27 0C24.9114 0 22.9084 0.948212 21.4315 2.63604C19.9547 4.32387 19.125 6.61305 19.125 9C19.125 11.3869 19.9547 13.6761 21.4315 15.364C22.9084 17.0518 24.9114 18 27 18C29.0886 18 31.0916 17.0518 32.5685 15.364C34.0453 13.6761 34.875 11.3869 34.875 9C34.875 6.61305 34.0453 4.32387 32.5685 2.63604C31.0916 0.948212 29.0886 0 27 0ZM27 5.14286C27.8951 5.14286 28.7536 5.54923 29.3865 6.27259C30.0194 6.99594 30.375 7.97702 30.375 9C30.375 10.023 30.0194 11.0041 29.3865 11.7274C28.7536 12.4508 27.8951 12.8571 27 12.8571C26.1049 12.8571 25.2465 12.4508 24.6135 11.7274C23.9806 11.0041 23.625 10.023 23.625 9C23.625 7.97702 23.9806 6.99594 24.6135 6.27259C25.2465 5.54923 26.1049 5.14286 27 5.14286ZM12.375 7.71429C10.8832 7.71429 9.45242 8.39158 8.39752 9.59717C7.34263 10.8028 6.75 12.4379 6.75 14.1429C6.75 16.56 7.9425 18.6429 9.6525 19.7486C10.4625 20.2629 11.385 20.5714 12.375 20.5714C13.365 20.5714 14.2875 20.2629 15.0975 19.7486C15.93 19.2086 16.6275 18.4371 17.145 17.5114C15.5058 15.07 14.6198 12.0773 14.625 9V8.28C13.95 7.92 13.185 7.71429 12.375 7.71429ZM41.625 7.71429C40.815 7.71429 40.05 7.92 39.375 8.28V9C39.375 12.0857 38.4975 15.0686 36.855 17.5114C37.125 18 37.4175 18.3857 37.755 18.7714C38.7923 19.9216 40.1797 20.5669 41.625 20.5714C42.615 20.5714 43.5375 20.2629 44.3475 19.7486C46.0575 18.6429 47.25 16.56 47.25 14.1429C47.25 12.4379 46.6574 10.8028 45.6025 9.59717C44.5476 8.39158 43.1168 7.71429 41.625 7.71429ZM27 23.1429C21.735 23.1429 11.25 26.1514 11.25 32.1429V36H42.75V32.1429C42.75 26.1514 32.265 23.1429 27 23.1429ZM10.5975 24.5571C6.255 25.1486 0 27.6686 0 32.1429V36H6.75V31.0371C6.75 28.44 8.3025 26.28 10.5975 24.5571ZM43.4025 24.5571C45.6975 26.28 47.25 28.44 47.25 31.0371V36H54V32.1429C54 27.6686 47.745 25.1486 43.4025 24.5571ZM27 28.2857C30.4425 28.2857 34.29 29.5714 36.5175 30.8571H17.4825C19.71 29.5714 23.5575 28.2857 27 28.2857Z" fill="#CC7E00"/>
</svg>
